<?xml version="1.0" encoding="UTF-8"?>
<svg version="1.1" xmlns="http://www.w3.org/2000/svg" width="256" height="256">
<path d="M0 0 C9.32701436 7.73119229 9.32701436 7.73119229 12.9765625 12.26953125 C19.36703657 19.91121465 27.88907192 25.18949194 37.78515625 26.46484375 C47.23883314 26.95613719 54.81592091 23.90648184 61.828125 17.65625 C63.36745969 16.17524266 64.88956634 14.67603845 66.390625 13.15625 C67.14472656 12.4034375 67.89882812 11.650625 68.67578125 10.875 C69.24167969 10.3078125 69.80757812 9.740625 70.390625 9.15625 C69.90893896 15.16394536 68.64462867 19.68844354 65.890625 25.03125 C65.53605225 25.72524902 65.18147949 26.41924805 64.81616211 27.13427734 C58.06155047 39.83442364 48.45627484 47.7212222 34.96875 52.39453125 C18.99844955 57.11302911 -0.22123913 55.42077691 -15.046875 48.21875 C-24.51632422 42.85461888 -31.81739663 35.0630623 -39.296875 27.28125 C-46.31808953 20.14323154 -53.69449645 16.03643454 -63.734375 15.84375 C-73.96605656 15.8217227 -81.03261296 19.4359915 -88.609375 26.15625 C-90.4174315 28.08718413 -92.00303651 30.04793074 -93.609375 32.15625 C-95.03845898 28.74185174 -94.25940157 26.39753206 -92.97167969 23.02954102 C-92.70774414 22.39072998 -92.44380859 21.75191895 -92.171875 21.09375 C-91.89891602 20.42980225 -91.62595703 19.76585449 -91.34472656 19.08178711 C-85.89938552 6.42426565 -77.3036448 -3.12025153 -64.609375 -8.71875 C-43.18957928 -16.77150864 -18.12177979 -14.5353752 0 0 Z " fill="#38BDF8" transform="translate(112.609375,139.84375)"/>
<path d="M0 0 C6.38605891 5.0937518 12.03732179 10.99643146 17.6875 16.875 C24.7451575 24.0500677 32.0981885 28.12856395 42.1875 28.25 C52.9202781 28.22061963 59.04994692 25.16411627 67 18 C68.81474063 16.06709021 70.39805681 14.11869905 72 12 C73.42908398 15.41439826 72.65002657 17.75871794 71.36230469 21.12670898 C71.09836914 21.76552002 70.83443359 22.40433105 70.5625 23.0625 C70.28954102 23.72644775 70.01658203 24.39039551 69.73535156 25.07446289 C64.29001052 37.73198435 55.6942698 47.27650153 43 52.875 C25.66931727 59.3904592 7.18312698 58.67325079 -9.94921875 51.8203125 C-19.10648981 47.30183422 -28.17113471 39.86374722 -34.5859375 31.88671875 C-40.97641157 24.24503535 -49.49844692 18.96675806 -59.39453125 17.69140625 C-68.84820814 17.20011281 -76.42529591 20.24976816 -83.4375 26.5 C-84.97683469 27.98100734 -86.49894134 29.48021155 -88 31 C-88.75410156 31.7528125 -89.50820312 32.505625 -90.28515625 33.28125 C-90.85105469 33.8484375 -91.41695313 34.415625 -92 35 C-91.51831396 28.99230464 -90.25400367 24.46780646 -87.5 19.125 C-87.14542725 18.43100098 -86.79085449 17.73700195 -86.42553711 17.02197266 C-79.67092547 4.32182636 -70.06564984 -3.5649722 -56.578125 -8.23828125 C-37.87563643 -13.76401651 -16.08817619 -10.79526142 0 0 Z " fill="#37BDF8" transform="translate(165,71)"/>
</svg>
